<svg width="35" height="35" viewBox="0 0 24 24" fill="none" xmlns="http://www.w3.org/2000/svg">
  <path fill-rule="evenodd" clip-rule="evenodd" d="M12 4C7.58172 4 4 7.58172 4 12C4 12.5523 4.44772 13 5 13C5.55228 13 6 12.5523 6 12C6 8.68629 8.68629 6 12 6C15.3137 6 18 8.68629 18 12C18 12.5523 18.4477 13 19 13C19.5523 13 20 12.5523 20 12C20 7.58172 16.4183 4 12 4ZM12 16C10.3431 16 9 14.6569 9 13C9 11.3431 10.3431 10 12 10C13.6569 10 15 11.3431 15 13C15 14.6569 13.6569 16 12 16Z" fill="black"/>
</svg>
