<svg width="24" height="24" viewBox="0 0 24 24" fill="none" xmlns="http://www.w3.org/2000/svg">
  <rect x="2" y="4" width="20" height="14" rx="2" fill="#E39F91"/>
  <rect x="5" y="8" width="14" height="8" fill="white"/>
  <path fill-rule="evenodd" clip-rule="evenodd" d="M15 19C15 19.5523 14.5523 20 14 20H10C9.44772 20 9 19.5523 9 19V18H15V19ZM9 17H15V16C15 15.4477 14.5523 15 14 15H10C9.44772 15 9 15.4477 9 16V17ZM7 2C6.44772 2 6 2.44772 6 3V21C6 21.5523 6.44772 22 7 22H17C17.5523 22 18 21.5523 18 21V3C18 2.44772 17.5523 2 17 2H7ZM8 4H16V20H8V4Z" fill="#7E8FA0"/>
</svg>
